<?xml version="1.0" standalone="no"?>
<!DOCTYPE svg PUBLIC "-//W3C//DTD SVG 20010904//EN"
 "http://www.w3.org/TR/2001/REC-SVG-20010904/DTD/svg10.dtd">
<svg version="1.0" xmlns="http://www.w3.org/2000/svg"
 width="319.000000pt" height="319.000000pt" viewBox="0 0 319.000000 319.000000"
 preserveAspectRatio="xMidYMid meet">
<metadata>
Created by potrace 1.14, written by Peter Selinger 2001-2017
</metadata>
<g transform="translate(0.000000,319.000000) scale(0.100000,-0.100000)"
fill="#000000" stroke="none">
<path d="M1465 2860 c-4 -6 -4 -22 -1 -35 9 -35 48 -23 44 14 -3 27 -31 41
-43 21z"/>
<path d="M965 2712 c-32 -8 -98 -12 -183 -10 l-132 3 -20 -53 c-25 -65 -25
-84 -2 -112 16 -20 30 -24 98 -26 43 -1 119 -10 168 -19 82 -14 93 -14 137 0
61 21 82 14 106 -33 15 -32 17 -55 13 -167 -2 -71 -4 -179 -3 -240 2 -131 2
-677 0 -790 0 -44 1 -159 3 -255 3 -131 0 -188 -11 -225 l-14 -50 -55 -3 c-30
-2 -62 -9 -70 -16 -9 -8 -57 -16 -119 -20 -154 -9 -239 -54 -262 -139 -12 -47
-5 -73 27 -93 22 -15 26 -15 50 0 14 10 28 24 31 32 8 22 70 18 78 -5 5 -18
51 -41 81 -41 7 0 26 -13 42 -30 17 -16 36 -30 44 -30 7 0 40 14 72 30 72 37
149 40 228 10 39 -15 65 -19 98 -14 70 9 162 34 192 52 25 15 28 14 78 -26 46
-37 54 -40 81 -30 17 6 52 8 80 4 41 -6 57 -3 88 15 43 24 76 74 86 131 6 32
2 43 -25 82 -26 36 -44 49 -84 62 -28 9 -78 31 -111 47 -51 26 -69 30 -120 28
-40 -2 -68 -9 -84 -22 -32 -26 -51 -24 -87 9 -62 57 -67 72 -59 180 4 53 14
116 21 139 13 37 13 51 0 105 -8 35 -19 76 -25 91 -10 26 -7 35 31 88 22 33
51 62 63 65 13 3 50 -9 95 -30 41 -20 81 -36 89 -36 8 0 44 16 79 36 64 35 66
35 101 20 20 -8 56 -17 81 -21 25 -3 68 -18 97 -34 28 -16 56 -25 61 -22 6 3
20 32 32 63 20 55 21 56 68 63 66 10 103 27 152 72 24 21 66 49 94 63 l51 25
-1 195 c0 217 -5 246 -85 492 -38 116 -45 129 -79 153 -20 14 -42 36 -48 49
-23 52 -194 162 -294 191 -51 14 -78 15 -240 4 -104 -6 -226 -8 -283 -4 -176
13 -446 11 -500 -3z m578 -192 c92 -10 140 -23 178 -52 13 -9 32 -9 88 2 65
12 74 12 113 -6 23 -10 65 -37 93 -59 39 -31 57 -38 83 -36 40 3 58 -11 117
-94 l44 -61 -10 -79 c-19 -158 -48 -249 -88 -277 -10 -7 -22 -24 -26 -38 -11
-38 -54 -90 -84 -102 -14 -6 -80 -36 -146 -67 l-119 -55 -121 -1 c-123 0 -234
13 -271 33 -29 15 -61 94 -69 167 -4 34 -1 103 6 160 21 156 17 237 -15 335
-36 112 -30 156 25 211 34 34 44 39 72 34 18 -2 76 -9 130 -15z"/>
<path d="M2966 232 c-3 -6 -1 -14 5 -17 15 -10 25 3 12 16 -7 7 -13 7 -17 1z"/>
</g>
</svg>
